<?xml version="1.0" encoding="UTF-8"?>
<!DOCTYPE svg PUBLIC "-//W3C//DTD SVG 1.1//EN" "http://www.w3.org/Graphics/SVG/1.1/DTD/svg11.dtd">
<!-- Creator: CorelDRAW 2020 (64 Bit) -->
<svg xmlns="http://www.w3.org/2000/svg" xml:space="preserve" width="56.4223mm" height="14.9101mm" version="1.1" style="shape-rendering:geometricPrecision; text-rendering:geometricPrecision; image-rendering:optimizeQuality; fill-rule:evenodd; clip-rule:evenodd"
viewBox="0 0 850.99 224.88"
 xmlns:xlink="http://www.w3.org/1999/xlink"
 xmlns:xodm="http://www.corel.com/coreldraw/odm/2003">
 <defs>
  <style type="text/css">
   <![CDATA[
    .fil5 {fill:#FFF212}
    .fil2 {fill:#F58634}
    .fil1 {fill:#EC268F}
    .fil3 {fill:#00A859}
    .fil0 {fill:#00AFEF;fill-rule:nonzero}
    .fil4 {fill:#0A67A9;fill-rule:nonzero}
   ]]>
  </style>
 </defs>
 <g id="Camada_x0020_1">
  <metadata id="CorelCorpID_0Corel-Layer"/>
  <path class="fil0" d="M105.99 3.36c15.15,11.02 30.14,19.28 44.96,24.8 14.68,5.46 29.25,8.27 43.7,8.41l7.52 0.08 0.28 7.5c1.88,50.94 -5.25,91.39 -21.39,121.34 -16.58,30.76 -42.38,50.37 -77.41,58.83l0 0.01 -2.27 0.56 -2.27 -0.56 0 -0.01c-35.03,-8.46 -60.84,-28.07 -77.41,-58.83 -16.14,-29.95 -23.27,-70.4 -21.39,-121.34l0.28 -7.5 7.52 -0.08c14.46,-0.15 29.02,-2.95 43.7,-8.41 14.82,-5.52 29.81,-13.78 44.96,-24.8l4.62 -3.36 4.62 3.36zm39.48 39.52c-14.71,-5.47 -29.41,-13.3 -44.1,-23.49 -14.69,10.19 -29.39,18.01 -44.1,23.49 -13.85,5.16 -27.68,8.19 -41.48,9.11 -0.88,44.63 5.71,79.98 19.75,106.05 14.13,26.23 36.08,43.11 65.83,50.65 29.75,-7.54 51.69,-24.43 65.82,-50.65 14.05,-26.07 20.63,-61.42 19.75,-106.05 -13.8,-0.92 -27.62,-3.95 -41.48,-9.11z"/>
  <path class="fil1" d="M20.27 61.33c6.52,52.61 30.44,44.92 71.74,-23.06 -28.24,52.98 -27.06,105.93 3.55,158.86 -49.46,-15.28 -74.56,-60.54 -75.29,-135.8zm29.32 -0.74c5.52,0 10,5.33 10,11.9 0,6.57 -4.48,11.9 -10,11.9 -5.52,0 -10,-5.33 -10,-11.9 0,-6.57 4.48,-11.9 10,-11.9z"/>
  <path class="fil2" d="M182.48 61.33c-6.52,52.61 -30.44,44.92 -71.74,-23.06 28.24,52.98 27.06,105.93 -3.55,158.86 49.46,-15.28 74.56,-60.54 75.29,-135.8zm-29.32 -0.74c-5.52,0 -10,5.33 -10,11.9 0,6.57 4.48,11.9 10,11.9 5.52,0 10,-5.33 10,-11.9 0,-6.57 -4.48,-11.9 -10,-11.9z"/>
  <path class="fil3" d="M101.37 112.48c-6.52,-1.46 -12.04,-11.52 -16.56,-30.15 -2.5,37.75 3.02,75.27 16.56,112.54 13.53,-37.27 19.05,-74.79 16.55,-112.54 -4.52,18.64 -10.04,28.69 -16.55,30.15zm0 -21.15c3.8,0 6.87,3.53 6.87,7.88 0,4.35 -3.08,7.88 -6.87,7.88 -3.8,0 -6.87,-3.53 -6.87,-7.88 0,-4.35 3.08,-7.88 6.87,-7.88z"/>
  <path class="fil4" d="M249.88 38.65l0 40.2 3.05 0 0 -40.2 -3.05 0zm39.45 0l0 34.57 -23.77 -34.57 -2.64 0 0 40.2 3.04 0 0 -34.57 23.72 34.57 2.7 0 0 -40.2 -3.05 0zm24.75 40.83c7.98,0 13.21,-4.36 13.21,-11.02 0,-6.95 -6.2,-9.19 -13.32,-11.54 -5.74,-1.89 -9.82,-3.39 -9.82,-8.21 0,-4.48 3.5,-7.75 9.07,-7.75 5.74,0 8.84,3.33 10.34,6.95l2.59 -1.43c-1.95,-4.65 -6.32,-8.44 -12.92,-8.44 -6.83,0 -12.18,4.19 -12.18,10.79 0,7.01 6.03,8.9 12.75,11.08 6.14,1.95 10.39,3.79 10.39,8.61 0,4.6 -3.39,8.04 -10.11,8.04 -6.6,0 -10.68,-3.27 -12.06,-8.1l-2.64 1.55c1.84,5.69 7.18,9.47 14.7,9.47zm43.93 -40.83l-28.37 0 0 2.87 12.64 0 0 37.33 3.1 0 0 -37.33 12.64 0 0 -2.87zm6.32 0l0 40.2 3.05 0 0 -40.2 -3.05 0zm37.73 0l-28.37 0 0 2.87 12.63 0 0 37.33 3.1 0 0 -37.33 12.63 0 0 -2.87zm20.45 40.83c8.84,0 14.76,-5.57 14.76,-14.07l0 -26.76 -3.04 0 0 26.76c0,6.55 -4.08,11.14 -11.71,11.14 -7.58,0 -11.66,-4.6 -11.66,-11.14l0 -26.76 -3.04 0 0 26.76c0,8.5 5.86,14.07 14.7,14.07zm48.87 -40.83l-28.37 0 0 2.87 12.63 0 0 37.33 3.1 0 0 -37.33 12.64 0 0 -2.87zm22.45 40.83c11.6,0 20.73,-9.25 20.73,-20.73 0,-11.48 -9.13,-20.73 -20.73,-20.73 -11.6,0 -20.73,9.25 -20.73,20.73 0,11.49 9.13,20.73 20.73,20.73zm0 -2.93c-9.93,0 -17.69,-7.93 -17.69,-17.8 0,-9.88 7.75,-17.8 17.69,-17.8 9.94,0 17.69,7.92 17.69,17.8 0,9.88 -7.75,17.8 -17.69,17.8z"/>
  <path class="fil4" d="M266.47 156.42l0 -12.85 25.92 0 0 -15.76 -25.92 0 0 -12.03 28.51 0 0 -15.96 -45.1 0 0 72.57 45.62 0 0 -15.97 -29.03 0zm65.83 17.42c15.96,0 27.99,-9.33 27.99,-24.88l0 -49.14 -16.59 0 0 47.69c0,5.49 -2.59,10.16 -11.4,10.16 -8.81,0 -11.41,-4.67 -11.41,-10.16l0 -47.69 -16.59 0 0 49.14c0,15.55 12.03,24.88 27.99,24.88zm94.86 -74.02l-29.03 0 0 72.57 29.03 0c20.01,0 35.25,-15.76 35.25,-36.29 0,-20.53 -15.24,-36.29 -35.25,-36.29zm0 56.6l-12.44 0 0 -40.64 12.44 0c11.41,0 19.28,7.88 19.28,20.32 0,12.44 -7.88,20.32 -19.28,20.32zm61.17 0l0 -12.85 25.92 0 0 -15.76 -25.92 0 0 -12.03 28.51 0 0 -15.96 -45.1 0 0 72.57 45.62 0 0 -15.97 -29.03 0zm82.42 -40.64l0 -15.96 -44.06 0 0 72.57 16.59 0 0 -26.64 26.96 0 0 -15.97 -26.96 0 0 -14 27.47 0zm26.44 40.64l0 -12.85 25.92 0 0 -15.76 -25.92 0 0 -12.03 28.51 0 0 -15.96 -45.1 0 0 72.57 45.62 0 0 -15.97 -29.03 0zm78.79 -56.6l0 39.4 -27.99 -39.4 -12.44 0 0 72.57 16.59 0 0 -39.4 27.99 39.4 12.44 0 0 -72.57 -16.59 0zm58.06 0l-29.03 0 0 72.57 29.03 0c20.01,0 35.25,-15.76 35.25,-36.29 0,-20.53 -15.24,-36.29 -35.25,-36.29zm0 56.6l-12.44 0 0 -40.64 12.44 0c11.41,0 19.29,7.88 19.29,20.32 0,12.44 -7.88,20.32 -19.29,20.32zm79.21 17.42c20.84,0 37.74,-16.38 37.74,-37.74 0,-21.36 -16.9,-37.74 -37.74,-37.74 -20.84,0 -37.74,16.38 -37.74,37.74 0,21.36 16.9,37.74 37.74,37.74zm0 -16.17c-11.82,0 -21.15,-8.6 -21.15,-21.56 0,-12.96 9.33,-21.57 21.15,-21.57 11.82,0 21.15,8.6 21.15,21.57 0,12.96 -9.33,21.56 -21.15,21.56z"/>
  <polygon class="fil5" points="101.37,56.23 104.73,63.18 112.38,64.23 106.81,69.57 108.18,77.17 101.37,73.52 94.57,77.17 95.94,69.57 90.36,64.23 98.01,63.18 "/>
 </g>
</svg>
